<svg t="1741276452653" class="icon" viewBox="0 0 1024 1024" version="1.1" xmlns="http://www.w3.org/2000/svg" p-id="2601" width="256" height="256"><path d="M256 298.666667a85.333333 85.333333 0 1 0 0-170.666667 85.333333 85.333333 0 0 0 0 170.666667z m0 85.333333a170.666667 170.666667 0 1 1 0-341.333333 170.666667 170.666667 0 0 1 0 341.333333z" fill="#000000" p-id="2602"></path><path d="M298.666667 489.173333V725.333333a85.333333 85.333333 0 0 0 85.333333 85.333334h256v85.333333H384a170.666667 170.666667 0 0 1-170.666667-170.666667V298.666667h85.333334v42.666666a85.333333 85.333333 0 0 0 85.333333 85.333334h256v85.333333H384a169.898667 169.898667 0 0 1-85.333333-22.826667z" fill="#000000" opacity=".3" p-id="2603"></path><path d="M768 938.666667a85.333333 85.333333 0 1 0 0-170.666667 85.333333 85.333333 0 0 0 0 170.666667z m0 85.333333a170.666667 170.666667 0 1 1 0-341.333333 170.666667 170.666667 0 0 1 0 341.333333zM768 554.666667a85.333333 85.333333 0 1 0 0-170.666667 85.333333 85.333333 0 0 0 0 170.666667z m0 85.333333a170.666667 170.666667 0 1 1 0-341.333333 170.666667 170.666667 0 0 1 0 341.333333z" fill="#000000" p-id="2604"></path></svg>